<svg width="85" height="34" viewBox="0 0 85 34" fill="none" xmlns="http://www.w3.org/2000/svg">
<g filter="url(#filter0_b_6_234)">
<path d="M57.758 7.0209V26.5046C57.758 30.2637 57.3915 31.3186 59.7752 31.96V32.7395H50.2399V31.96C51.4776 31.5018 51.3399 30.2637 51.3399 26.5046V17.7483H40.2459V26.5046C40.2459 30.2637 40.0627 31.5018 41.3459 31.96V32.7395H31.765V31.96C34.1943 31.3186 33.8278 30.2637 33.8278 26.5046V7.0209C33.8278 3.49113 33.965 1.65718 31.765 1.24509V0.465088H41.3459V1.24509C40.0627 1.65718 40.2459 3.49113 40.2459 7.0209V16.8316H51.3399V7.0209C51.3399 3.49113 51.5236 1.65718 50.2399 1.24509V0.465088H59.7752V1.24509C57.6204 1.65718 57.758 3.49113 57.758 7.0209Z" fill="white"/>
</g>
<g filter="url(#filter1_b_6_234)">
<path d="M84.4287 31.9598V32.7393H77.1855C72.3259 32.7393 71.2255 31.41 66.4125 24.4416C63.7534 20.6821 61.7822 18.0691 61.7822 18.0691L68.1083 10.4137C68.1083 10.4137 75.9934 1.42766 67.8334 1.24487V0.465332H82.9618V1.24487C79.8906 1.24487 76.6813 1.33603 66.779 14.0351C77.5064 28.3839 77.965 28.9802 77.965 28.9802C80.2115 31.9598 83.1911 31.9598 84.4287 31.9598Z" fill="white"/>
</g>
<g filter="url(#filter2_b_6_234)">
<path d="M8.57867 21.1934C8.57867 21.1646 8.49355 18.8627 8.46564 18.1046C8.46099 17.9706 8.35076 17.866 8.21634 17.866C8.08332 17.866 7.97355 17.9678 7.96657 18.1004C7.92564 18.8534 7.79913 21.166 7.79867 21.1971C7.78704 22.0343 7.50936 31.9595 0.922852 31.9595V32.7395H14.8135V31.9595C8.74471 31.9595 8.58192 22.005 8.57867 21.1934Z" fill="white"/>
</g>
<g filter="url(#filter3_b_6_234)">
<path d="M29.209 15.2416C29.1007 15.1965 28.9765 15.2476 28.9314 15.356L27.3695 18.3965C26.0146 21.0332 24.5965 22.1453 23.0337 19.1104L23.0341 19.1123L14.1714 0.464844H2.61926V1.24484C3.76484 1.33601 6.0574 1.33601 7.79926 4.4081L21.4146 33.1518H22.1941L22.9262 31.3267L29.3253 15.5141C29.3667 15.4072 29.3155 15.2858 29.209 15.2416Z" fill="white"/>
</g>
<defs>
<filter id="filter0_b_6_234" x="21.765" y="-9.53491" width="48.0102" height="52.2744" filterUnits="userSpaceOnUse" color-interpolation-filters="sRGB">
<feFlood flood-opacity="0" result="BackgroundImageFix"/>
<feGaussianBlur in="BackgroundImageFix" stdDeviation="5"/>
<feComposite in2="SourceAlpha" operator="in" result="effect1_backgroundBlur_6_234"/>
<feBlend mode="normal" in="SourceGraphic" in2="effect1_backgroundBlur_6_234" result="shape"/>
</filter>
<filter id="filter1_b_6_234" x="51.7822" y="-9.53467" width="42.6465" height="52.2739" filterUnits="userSpaceOnUse" color-interpolation-filters="sRGB">
<feFlood flood-opacity="0" result="BackgroundImageFix"/>
<feGaussianBlur in="BackgroundImageFix" stdDeviation="5"/>
<feComposite in2="SourceAlpha" operator="in" result="effect1_backgroundBlur_6_234"/>
<feBlend mode="normal" in="SourceGraphic" in2="effect1_backgroundBlur_6_234" result="shape"/>
</filter>
<filter id="filter2_b_6_234" x="-9.07715" y="7.86597" width="33.8907" height="34.8735" filterUnits="userSpaceOnUse" color-interpolation-filters="sRGB">
<feFlood flood-opacity="0" result="BackgroundImageFix"/>
<feGaussianBlur in="BackgroundImageFix" stdDeviation="5"/>
<feComposite in2="SourceAlpha" operator="in" result="effect1_backgroundBlur_6_234"/>
<feBlend mode="normal" in="SourceGraphic" in2="effect1_backgroundBlur_6_234" result="shape"/>
</filter>
<filter id="filter3_b_6_234" x="-7.38074" y="-9.53516" width="46.7204" height="52.687" filterUnits="userSpaceOnUse" color-interpolation-filters="sRGB">
<feFlood flood-opacity="0" result="BackgroundImageFix"/>
<feGaussianBlur in="BackgroundImageFix" stdDeviation="5"/>
<feComposite in2="SourceAlpha" operator="in" result="effect1_backgroundBlur_6_234"/>
<feBlend mode="normal" in="SourceGraphic" in2="effect1_backgroundBlur_6_234" result="shape"/>
</filter>
</defs>
</svg>
